# AST/ASF file generated using VICON BodyLanguage
# -----------------------------------------------
:version 1.10
:name VICON
:units
  mass 1.0
  length 0.45
  angle deg
:documentation
   .ast/.asf automatically generated from VICON data using
   VICON BodyBuilder and BodyLanguage model FoxedUp or BRILLIANT.MOD
:root
   order TX TY TZ RX RY RZ
   axis XYZ
   position 0 0 0  
   orientation 0 0 0 
:bonedata
  begin
     id 1 
     name lhipjoint
     direction 0.521452 -0.77106 0.36545 
     length 2.0933 
     axis 0 0 0  XYZ
  end
  begin
     id 2 
     name lfemur
     direction 0.34202 -0.939693 0  
     length 6.83441  
     axis 0 0 20  XYZ
    dof rx ry rz
    limits (-160.0 20.0)
           (-70.0 70.0)
           (-60.0 70.0)
  end
  begin
     id 3 
     name ltibia
     direction 0.34202 -0.939693 0   
     length 7.28749   
     axis 0 0 20   XYZ
    dof rx
    limits (-10.0 170.0)
  end
  begin
     id 4 
     name lfoot
     direction 0.100608 -0.276418 0.955757   
     length 1.52195   
     axis -90 7.62852e-016 20   XYZ
    dof rx rz
    limits (-45.0 90.0)
           (-70.0 20.0)
  end
  begin
     id 5 
     name ltoes
     direction 1.53558e-011 -4.21907e-011 1   
     length 0.770459   
     axis -90 7.62852e-016 20   XYZ
    dof rx
    limits (-90.0 20.0)
  end
  begin
     id 6 
     name rhipjoint
     direction -0.488071 -0.788702 0.373812   
     length 2.04648  
     axis 0 0 0  XYZ 
  end
  begin
     id 7 
     name rfemur
     direction -0.34202 -0.939693 0   
     length 6.92583   
     axis 0 0 -20   XYZ
    dof rx ry rz
    limits (-160.0 20.0)
           (-70.0 70.0)
           (-70.0 60.0)
  end
  begin
     id 8 
     name rtibia
     direction -0.34202 -0.939693 0   
     length 7.41043   
     axis 0 0 -20   XYZ
    dof rx
    limits (-10.0 170.0)
 end
 begin
     id 9 
     name rfoot
     direction -0.0784433 -0.215521 0.973343   
     length 1.67708  
     axis -90 -7.62852e-016 -20   XYZ
    dof rx rz
    limits (-45.0 90.0)
           (-20.0 70.0)
  end
  begin
     id 10 
     name rtoes
     direction -1.53551e-011 -4.21842e-011 1   
     length 0.849787   
     axis -90 -7.62852e-016 -20   XYZ
    dof rx
    limits (-90.0 20.0)
  end
  begin
     id 11 
     name lowerback
     direction -0.0122332 0.997575 -0.0685192   
     length 1.98724   
     axis 0 0 0   XYZ
    dof rx ry rz
    limits (-20.0 45.0)
           (-30.0 30.0)
           (-30.0 30.0)
  end
  begin
     id 12 
     name upperback
     direction 0.0182347 0.999724 -0.0148421   
     length 1.99029   
     axis 0 0 0   XYZ
    dof rx ry rz
    limits (-20.0 45.0)
           (-30.0 30.0)
           (-30.0 30.0)
  end
  begin
     id 13 
     name thorax
     direction 0.0242908 0.99956 0.0170184   
     length 1.99573   
     axis 0 0 0   XYZ
    dof rx ry rz
    limits (-20.0 45.0)
           (-30.0 30.0)
           (-30.0 30.0)
  end
  begin
     id 14 
     name lowerneck
     direction 0.0654488 0.985533 0.156338   
     length 1.4285   
     axis 0 0 0   XYZ
    dof rx ry rz
    limits (-20.0 45.0)
           (-30.0 30.0)
           (-30.0 30.0)
  end
  begin
     id 15 
     name upperneck
     direction -0.02953 0.998556 -0.0448842   
     length 1.44709   
     axis 0 0 0   XYZ
    dof rx ry rz
    limits (-20.0 45.0)
           (-30.0 30.0)
           (-30.0 30.0)
  end
  begin
     id 16
     name head
     direction -0.0155588 0.999386 -0.0314063  
     length 1.44689  
     axis 0 0 0   XYZ
    dof rx ry rz
    limits (-20.0 45.0)
           (-30.0 30.0)
           (-30.0 30.0)
  end
  begin
     id 17 
     name lclavicle
     direction 0.968229 0.236071 -0.0824755  
     length 3.60593  
     axis 0 0 0   XYZ
    dof ry rz
    limits (-20.0 10.0)
           (0.0 20.0)
  end
  begin
     id 18 
     name lhumerus
     direction 1 -4.48968e-011 7.8138e-029   
     length 5.06035   
     axis 180 -30 -90   XYZ
    dof rx ry rz
    limits (-60.0 90.0)
           (-90.0 90.0)
           (-90.0 90.0)
  end
  begin
     id 19
     name lradius
     direction 1 -4.48967e-011 9.02887e-028   
     length 3.1478   
     axis 180 -30 -90   XYZ
    dof rx
    limits (-10.0 170.0)
  end
  begin
     id 20
     name lwrist
     direction 1 -4.48961e-011 7.20928e-028   
     length 1.5739   
     axis -5.52449e-016 90 90   XYZ
    dof ry
    limits (-180.0 0.0)
 end
  begin
     id 21 
     name lhand
     direction 1 -4.48972e-011 1.44186e-027   
     length 0.606747   
     axis -9.20027e-016 90 90   XYZ
    dof rx rz
    limits (-90.0 90.0)
           (-45.0 45.0)
  end
  begin
     id 22 
     name lfingers
     direction 1 -4.48943e-011 2.88371e-027   
     length 0.489175   
     axis -1.84005e-015 90 90   XYZ
    dof rx
    limits (0.0 90.0)
  end
  begin
     id 23
     name lthumb
     direction 0.707107 -6.34917e-011 0.707107   
     length 0.70236   
     axis -90 45 2.85299e-015   XYZ
    dof rx rz
    limits (-45.0 45.0)
           (-45.0 45.0)
  end
  begin
     id 24 
     name rclavicle
     direction -0.978165 0.207816 0.0022268   
     length 3.35425  
     axis 0 0 0   XYZ 
    dof ry rz
    limits (-10.0 20.0)
           (-20.0 0.0)
  end
  begin
     id 25 
     name rhumerus
     direction -1 -4.48964e-011 -4.02159e-027  
     length 5.12273   
     axis 180 30 90   XYZ
    dof rx ry rz
    limits (-90.0 60.0)
           (-90.0 90.0)
           (-90.0 90.0)
  end
  begin
     id 26 
     name rradius
     direction -1 -4.48966e-011 1.62746e-027   
     length 3.422   
     axis 180 30 90   XYZ
    dof rx
    limits (-10.0 170.0)
  end
  begin
     id 27 
     name rwrist
     direction -1 -4.4896e-011 7.20928e-028   
     length 1.711   
     axis -5.52449e-016 -90 -90   XYZ
    dof ry
    limits (-180.0 0.0)
  end
  begin
     id 28
     name rhand
     direction -1 -4.48979e-011 1.44186e-027   
     length 0.704599   
     axis -9.20027e-016 -90 -90   XYZ
    dof rx rz
    limits (-90.0 90.0)
           (-45.0 45.0)
  end
  begin
     id 29
     name rfingers
     direction -1 -4.48962e-011 2.88371e-027   
     length 0.568066   
     axis -1.84005e-015 -90 -90   XYZ
    dof rx
    limits (0.0 90.0)
  end
  begin
     id 30
     name rthumb
     direction -0.707107 -6.34949e-011 0.707107   
     length 0.815633   
     axis -90 -45 -2.85299e-015   XYZ
    dof rx rz
    limits (-45.0 45.0)
           (-45.0 45.0)
  end
:hierarchy
  begin
    root lhipjoint rhipjoint lowerback
    lhipjoint lfemur
    lfemur ltibia
    ltibia lfoot
    lfoot ltoes
    rhipjoint rfemur
    rfemur rtibia
    rtibia rfoot
    rfoot rtoes
    lowerback upperback
    upperback thorax
    thorax lowerneck lclavicle rclavicle
    lowerneck upperneck
    upperneck head
    lclavicle lhumerus
    lhumerus lradius
    lradius lwrist
    lwrist lhand lthumb
    lhand lfingers
    rclavicle rhumerus
    rhumerus rradius
    rradius rwrist
    rwrist rhand rthumb
    rhand rfingers
  end

#!OML:ASF E:\id_vita\Project 1\Capture day 1\Session 1\Male1.ASF
:FULLY-SPECIFIED
:DEGREES
535
root 3.47657 27.1585 0.485844 -175.414 85.2958 -192.381
lowerback 11.7478 -1.63152 -7.97506
upperback 10.2068 -2.07847 -1.27126
thorax 4.52621 -1.20112 3.29426
lowerneck -7.62234 1.71436 4.7449
upperneck -7.89579 2.65248 6.02599
head -1.22256 1.32351 1.11364
rclavicle 2.38542e-015 -1.51076e-014
rhumerus 39.6641 12.9557 -72.8354
rradius 124.275
rwrist -2.64627
rhand -30.7031 50.9306
rfingers 7.12502
rthumb -3.99641 20.9884
lclavicle 2.38542e-015 -1.51076e-014
lhumerus 52.6795 -10.6741 59.2519
lradius 119.179
lwrist -3.32587
lhand -33.2442 40.4154
lfingers 7.12502
lthumb -6.44995 70.2972
rfemur -35.177 -1.52311 17.8942
rtibia 31.8697
rfoot -10.5211 -8.47367
rtoes -7.38055
lfemur -30.9124 0.164692 -18.3614
ltibia 32.6808
lfoot -21.3299 -0.961333
ltoes 24.9494
536
root 3.47337 27.1586 0.484178 -174.892 85.2261 -191.831
lowerback 11.8195 -1.65916 -7.9204
upperback 10.1569 -2.12445 -1.25143
thorax 4.43481 -1.21868 3.29129
lowerneck -6.74459 1.66551 5.28759
upperneck -8.33819 2.58773 5.19298
head -1.48583 1.24407 0.754044
rclavicle -8.74653e-015 1.66979e-014
rhumerus 39.5123 12.9236 -72.9285
rradius 124.307
rwrist -3.06336
rhand -30.7043 50.7794
rfingers 7.12502
rthumb -3.99757 20.8371
lclavicle -8.74653e-015 1.66979e-014
lhumerus 52.5421 -10.644 59.2905
lradius 119.132
lwrist -3.27731
lhand -33.7234 39.9911
lfingers 7.12502
lthumb -6.91258 69.8583
rfemur -35.1414 -1.56917 17.9363
rtibia 31.8446
rfoot -10.4203 -8.53063
rtoes -8.0391
lfemur -30.9247 0.153782 -18.3246
ltibia 32.7122
lfoot -21.3319 -1.0139
ltoes 25.0308
537
root 3.46978 27.1569 0.483449 -175.066 85.2099 -192.028
lowerback 11.8337 -1.66589 -7.93779
upperback 10.1104 -2.14231 -1.25695
thorax 4.37911 -1.22674 3.29783
lowerneck -7.27414 1.76815 4.56246
upperneck -8.1194 2.78652 6.14602
head -1.35646 1.38083 1.17972
rclavicle -1.59028e-014 4.77083e-015
rhumerus 39.353 12.8574 -73.0664
rradius 124.286
rwrist -3.39941
rhand -30.7167 50.766
rfingers 7.12502
rthumb -4.00958 20.824
lclavicle -1.59028e-014 4.77083e-015
lhumerus 52.4243 -10.6248 59.3393
lradius 119.109
lwrist -3.31283
lhand -34.1413 39.5269
lfingers 7.12502
lthumb -7.31594 69.3805
rfemur -35.1811 -1.54603 17.8977
rtibia 31.8301
rfoot -10.3577 -8.59332
rtoes -8.02614
lfemur -30.974 0.0361194 -18.3178
ltibia 32.7345
lfoot -21.3269 -0.947233
ltoes 25.3807
538
root 3.46622 27.1564 0.479455 -174.878 85.2239 -191.802
lowerback 11.8888 -1.67977 -7.92554
upperback 10.0959 -2.16644 -1.25106
thorax 4.33557 -1.23671 3.30099
lowerneck -6.70323 1.64412 5.12444
upperneck -8.47346 2.59484 5.36435
head -1.54089 1.24693 0.833911
rclavicle 9.54166e-015 4.05521e-014
rhumerus 39.2468 12.9421 -73.0398
rradius 124.232
rwrist -3.18052
rhand -30.7388 50.923
rfingers 7.12502
rthumb -4.03089 20.9814
lclavicle 9.54166e-015 4.05521e-014
lhumerus 52.2842 -10.5594 59.3672
lradius 119.11
lwrist -3.38962
lhand -34.1432 39.4055
lfingers 7.12502
lthumb -7.31776 69.2589
rfemur -35.1471 -1.53672 17.8999
rtibia 31.8348
rfoot -10.4035 -8.56634
rtoes -7.80369
lfemur -30.9307 -0.0704596 -18.2829
ltibia 32.732
lfoot -21.3239 -0.870431
ltoes 25.6168
539
root 3.46331 27.1568 0.475187 -176.192 85.1519 -193.036
lowerback 11.9727 -1.68999 -8.04369
upperback 10.1147 -2.19114 -1.25002
thorax 4.32235 -1.25399 3.37164
lowerneck -6.68377 1.68076 5.12346
upperneck -8.46933 2.64397 5.34292
head -1.54264 1.27156 0.827496
rclavicle 3.81667e-014 1.43125e-014
rhumerus 39.2076 12.9448 -72.8846
rradius 124.182
rwrist -3.06138
rhand -30.7565 50.9597
rfingers 7.12502
rthumb -4.04805 21.0184
lclavicle 3.81667e-014 1.43125e-014
lhumerus 52.2145 -10.5405 59.4247
lradius 119.089
lwrist -3.40203
lhand -34.0296 39.5224
lfingers 7.12502
lthumb -7.20816 69.3797
rfemur -35.0581 -1.6874 17.7934
rtibia 31.8524
rfoot -10.4527 -8.50475
rtoes -7.75371
lfemur -30.8336 -0.0766694 -18.4379
ltibia 32.7184
lfoot -21.348 -0.92142
ltoes 25.4612
540
root 3.46098 27.1562 0.47268 -177.083 85.0599 -193.893
lowerback 11.9849 -1.69485 -8.13443
upperback 10.1293 -2.20277 -1.23159
thorax 4.34081 -1.26576 3.44225
lowerneck -7.32295 1.88982 4.23323
upperneck -8.16693 2.97111 6.1393
head -1.36986 1.48216 1.23464
rclavicle -2.54444e-014 -9.54166e-015
rhumerus 39.1852 12.8565 -72.7475
rradius 124.21
rwrist -3.15115
rhand -30.7397 50.8192
rfingers 7.12502
rthumb -4.03179 20.8776
lclavicle -2.54444e-014 -9.54166e-015
lhumerus 52.2397 -10.5271 59.5338
lradius 119.032
lwrist -3.38031
lhand -34.0002 39.3966
lfingers 7.12502
lthumb -7.17972 69.2548
rfemur -35.0443 -1.83084 17.7171
rtibia 31.8842
rfoot -10.4529 -8.50947
rtoes -7.9027
lfemur -30.8152 -0.0235473 -18.5709
ltibia 32.6946
lfoot -21.3068 -1.03253
ltoes 25.1796
541
root 3.45758 27.1552 0.468413 -177.385 85.0543 -194.176
lowerback 12.0208 -1.70677 -8.13558
upperback 10.1036 -2.22514 -1.23332
thorax 4.29577 -1.27528 3.44442
lowerneck -6.90893 1.69889 4.73639
upperneck -8.3985 2.67647 5.47594
head -1.48941 1.30426 0.935211
rclavicle -4.05521e-014 -7.95139e-016
rhumerus 39.1192 12.926 -72.6338
rradius 124.346
rwrist -2.97512
rhand -30.7037 50.6715
rfingers 7.12502
rthumb -3.99701 20.7293
lclavicle -4.05521e-014 -7.95139e-016
lhumerus 52.1375 -10.4407 59.6007
lradius 119.059
lwrist -3.38189
lhand -34.0808 39.0388
lfingers 7.12502
lthumb -7.25755 68.8943
rfemur -35.0667 -1.84669 17.6708
rtibia 31.9244
rfoot -10.4362 -8.52219
rtoes -7.98379
lfemur -30.8042 -0.0530778 -18.6097
ltibia 32.659
lfoot -21.2488 -1.01207
ltoes 25.1156
542
root 3.45407 27.1539 0.464298 -178.563 85.091 -195.358
lowerback 12.0579 -1.70666 -8.20031
upperback 10.0628 -2.23706 -1.28179
thorax 4.23473 -1.28043 3.43228
lowerneck -7.48842 1.93967 3.89679
upperneck -8.06869 3.07184 6.56659
head -1.32644 1.54831 1.43001
rclavicle -1.66979e-014 -2.38542e-015
rhumerus 39.0305 13.0129 -72.5565
rradius 124.462
rwrist -2.74195
rhand -30.6945 50.6252
rfingers 7.12502
rthumb -3.98814 20.6828
lclavicle -1.66979e-014 -2.38542e-015
lhumerus 51.9857 -10.3495 59.5588
lradius 119.167
lwrist -3.26019
lhand -33.9775 38.9795
lfingers 7.12502
lthumb -7.15788 68.8385
rfemur -35.0932 -1.81543 17.5357
rtibia 31.9415
rfoot -10.4186 -8.5003
rtoes -7.9533
lfemur -30.7741 -0.167606 -18.7005
ltibia 32.6247
lfoot -21.2603 -0.919025
ltoes 25.4485
543
root 3.45295 27.1534 0.462962 -178.998 85.1172 -195.802
lowerback 12.0401 -1.69728 -8.23505
upperback 10.0209 -2.23165 -1.30432
thorax 4.19904 -1.27789 3.42781
lowerneck -7.30785 1.92388 3.8114
upperneck -8.15827 3.08567 6.7338
head -1.3899 1.5502 1.49616
rclavicle -1.43125e-014 -1.43125e-014
rhumerus 38.858 13.0286 -72.5116
rradius 124.529
rwrist -2.59942
rhand -30.7021 50.6903
rfingers 7.12502
rthumb -3.99544 20.748
lclavicle -1.43125e-014 -1.43125e-014
lhumerus 51.8607 -10.3879 59.5659
lradius 119.196
lwrist -3.19091
lhand -33.7097 39.0642
lfingers 7.12502
lthumb -6.89938 68.9318
rfemur -35.1092 -1.77335 17.4752
rtibia 31.9474
rfoot -10.4794 -8.52068
rtoes -7.83671
lfemur -30.7669 -0.161276 -18.7472
ltibia 32.5884
lfoot -21.2194 -0.928376
ltoes 25.8176
544
root 3.45292 27.1544 0.463484 -178.558 85.1309 -195.378
lowerback 11.9601 -1.6882 -8.21146
upperback 10.0012 -2.21511 -1.30195
thorax 4.21692 -1.27001 3.41386
lowerneck -6.52733 1.66321 4.8017
upperneck -8.57816 2.65713 5.40949
head -1.60823 1.279 0.899852
rclavicle -7.95139e-016 -4.21423e-014
rhumerus 38.6911 13.0518 -72.4364
rradius 124.62
rwrist -2.33091
rhand -30.6913 50.7518
rfingers 7.12502
rthumb -3.98502 20.8093
lclavicle -7.95139e-016 -4.21423e-014
lhumerus 51.7411 -10.505 59.6351
lradius 119.243
lwrist -3.26802
lhand -33.765 38.8873
lfingers 7.12502
lthumb -6.95268 68.7531
rfemur -35.1331 -1.71071 17.4948
rtibia 31.9602
rfoot -10.5204 -8.57637
rtoes -7.63339
lfemur -30.7914 -0.107451 -18.725
ltibia 32.5528
lfoot -21.1612 -0.918289
ltoes 25.7207
545
root 3.45234 27.1561 0.465601 -178.223 85.1298 -195.022
lowerback 11.9599 -1.68403 -8.21224
upperback 9.98519 -2.2117 -1.31384
thorax 4.19849 -1.26731 3.40191
lowerneck -6.39567 1.66462 4.93768
upperneck -8.59888 2.65412 5.30357
head -1.63333 1.27067 0.842944
rclavicle -5.08889e-014 -2.3059e-014
rhumerus 38.5793 13.1267 -72.3808
rradius 124.686
rwrist -1.96171
rhand -30.669 50.8103
rfingers 7.12502
rthumb -3.96353 20.8674
lclavicle -5.08889e-014 -2.3059e-014
lhumerus 51.6037 -10.5083 59.6151
lradius 119.47
lwrist -3.0848
lhand -33.9731 38.7022
lfingers 7.12502
lthumb -7.15362 68.5613
rfemur -35.0994 -1.62828 17.5048
rtibia 31.9426
rfoot -10.4812 -8.59722
rtoes -7.03531
lfemur -30.7578 -0.188931 -18.6599
ltibia 32.5332
lfoot -21.1737 -0.871534
ltoes 25.7349
546
root 3.45142 27.156 0.467844 -178.196 85.1091 -194.947
lowerback 12.0576 -1.67453 -8.24462
upperback 9.9031 -2.22076 -1.33629
thorax 4.05784 -1.26744 3.40213
lowerneck -6.03319 1.69786 5.03974
upperneck -8.79959 2.7256 5.18224
head -1.75588 1.29138 0.784781
rclavicle -3.18055e-014 3.02153e-014
rhumerus 38.3763 13.1352 -72.4374
rradius 124.715
rwrist -1.95249
rhand -30.6496 50.7627
rfingers 7.12502
rthumb -3.94478 20.8195
lclavicle -3.18055e-014 3.02153e-014
lhumerus 51.5067 -10.5429 59.5727
lradius 119.485
lwrist -2.92064
lhand -33.9659 38.6664
lfingers 7.12502
lthumb -7.14661 68.5257
rfemur -35.0192 -1.58468 17.4993
rtibia 31.8959
rfoot -10.4382 -8.5948
rtoes -6.62604
lfemur -30.6942 -0.219528 -18.6346
ltibia 32.5272
lfoot -21.1838 -0.91608
ltoes 25.9398
547
root 3.44997 27.1558 0.468792 -178.053 85.0838 -194.804
lowerback 12.0751 -1.65772 -8.26123
upperback 9.82258 -2.21264 -1.35725
thorax 3.95913 -1.26028 3.39123
lowerneck -6.28734 1.87252 4.34066
upperneck -8.56288 3.03427 6.13383
head -1.66811 1.47375 1.20482
rclavicle 2.38542e-015 1.59028e-014
rhumerus 38.2097 13.0158 -72.5245
rradius 124.709
rwrist -2.12829
rhand -30.6232 50.6378
rfingers 7.12502
rthumb -3.91924 20.6941
lclavicle 2.38542e-015 1.59028e-014
lhumerus 51.4848 -10.6758 59.5575
lradius 119.311
lwrist -3.00711
lhand -33.5593 38.7638
lfingers 7.12502
lthumb -6.75418 68.6361
rfemur -34.9981 -1.54407 17.5003
rtibia 31.8498
rfoot -10.3156 -8.68238
rtoes -7.22841
lfemur -30.7167 -0.0981608 -18.6536
ltibia 32.5282
lfoot -21.2102 -1.0266
ltoes 25.7211
548
root 3.44831 27.1566 0.468003 -177.515 85.1045 -194.26
lowerback 12.0578 -1.68175 -8.2432
upperback 9.819 -2.24186 -1.37064
thorax 3.96618 -1.27386 3.36873
lowerneck -5.78706 1.72458 5.02907
upperneck -8.83685 2.8087 5.50768
head -1.8167 1.3249 0.88685
rclavicle 3.18055e-014 -7.15625e-015
rhumerus 38.2286 13.0671 -72.5304
rradius 124.716
rwrist -1.8791
rhand -30.5922 50.6445
rfingers 7.12502
rthumb -3.88933 20.7003
lclavicle 3.18055e-014 -7.15625e-015
lhumerus 51.4998 -10.542 59.4991
lradius 119.203
lwrist -2.9751
lhand -33.2938 38.7681
lfingers 7.12502
lthumb -6.49787 68.6484
rfemur -34.9843 -1.47286 17.5341
rtibia 31.8169
rfoot -10.235 -8.78487
rtoes -7.77297
lfemur -30.7301 -0.0665217 -18.6043
ltibia 32.5284
lfoot -21.2311 -1.01451
ltoes 25.5475
549
root 3.44524 27.1574 0.466822 -177.095 85.1106 -193.817
lowerback 12.0875 -1.70316 -8.2228
upperback 9.83813 -2.26784 -1.3748
thorax 3.97259 -1.28545 3.35544
lowerneck -6.51649 2.09138 4.00055
upperneck -8.47869 3.3635 6.5533
head -1.6227 1.65671 1.39965
rclavicle 2.70347e-014 1.82882e-014
rhumerus 38.2326 13.1133 -72.5137
rradius 124.801
rwrist -1.61221
rhand -30.5694 50.675
rfingers 7.12502
rthumb -3.86736 20.7304
lclavicle 2.70347e-014 1.82882e-014
lhumerus 51.5499 -10.3464 59.4653
lradius 119.109
lwrist -2.81655
lhand -33.7624 38.3793
lfingers 7.12502
lthumb -6.9502 68.2452
rfemur -34.9451 -1.41635 17.555
rtibia 31.7885
rfoot -10.2735 -8.85679
rtoes -7.61299
lfemur -30.7027 -0.150512 -18.5426
ltibia 32.5152
lfoot -21.204 -0.942282
ltoes 25.8038
